<?xml version="1.0" standalone="no"?>
<!DOCTYPE svg PUBLIC "-//W3C//DTD SVG 20010904//EN"
 "http://www.w3.org/TR/2001/REC-SVG-20010904/DTD/svg10.dtd">
<svg version="1.0" xmlns="http://www.w3.org/2000/svg"
 width="460.000000pt" height="460.000000pt" viewBox="0 0 460.000000 460.000000"
 preserveAspectRatio="xMidYMid meet">
<metadata>
Created by potrace 1.14, written by Peter Selinger 2001-2017
</metadata>
<g transform="translate(0.000000,460.000000) scale(0.100000,-0.100000)"
fill="#000000" stroke="none">
<path d="M2256 4364 c-8 -21 -8 -24 3 -24 5 0 11 9 14 20 6 24 -8 27 -17 4z"/>
<path d="M2286 4354 c-9 -24 -7 -54 4 -54 6 0 10 -12 10 -26 0 -22 -2 -24 -14
-14 -8 6 -12 18 -9 26 4 10 -3 14 -25 14 -26 0 -31 -4 -36 -35 -7 -36 -26 -49
-26 -17 -1 10 -7 3 -15 -15 -9 -22 -19 -31 -29 -27 -11 4 -13 0 -9 -15 3 -12
10 -21 15 -21 5 0 6 -5 3 -11 -5 -7 -13 -5 -24 5 -10 9 -23 16 -30 16 -9 0
-11 6 -6 18 18 44 18 52 -4 52 -16 0 -21 6 -21 28 l0 27 -20 -33 c-17 -28 -23
-31 -41 -22 -11 6 -25 9 -32 6 -9 -3 -9 -5 1 -5 9 -1 9 -8 -3 -32 -11 -19 -22
-29 -33 -26 -20 4 -72 -19 -72 -32 0 -5 6 -12 13 -14 24 -10 -17 -27 -50 -21
-26 5 -37 1 -58 -21 -14 -16 -25 -34 -25 -41 0 -13 -5 -16 -41 -18 -26 -2
-129 -105 -129 -129 0 -5 -9 -21 -20 -37 -11 -15 -17 -30 -13 -33 10 -10 -18
-37 -38 -37 -15 0 -18 -7 -16 -37 1 -21 5 -43 9 -48 4 -6 3 -17 -3 -25 -5 -8
-9 -36 -9 -62 0 -26 -4 -50 -10 -53 -5 -3 -10 -14 -10 -24 0 -13 8 -18 31 -19
39 -1 42 -4 46 -50 1 -20 9 -42 18 -48 8 -6 15 -25 15 -42 0 -23 -9 -39 -40
-65 -52 -45 -61 -83 -26 -120 19 -21 26 -39 26 -70 0 -51 17 -116 35 -137 8
-9 15 -36 16 -60 1 -25 12 -65 25 -89 13 -24 24 -53 24 -65 0 -30 96 -176 116
-176 12 0 15 6 11 23 -3 12 -9 62 -13 112 -6 83 -6 89 10 76 15 -12 21 -10 49
17 18 17 48 37 67 43 19 7 54 25 78 40 24 16 45 29 48 29 3 0 32 23 65 50 33
28 62 50 65 50 3 0 3 -24 -1 -52 -5 -45 -2 -61 19 -102 23 -45 25 -57 19 -129
-5 -63 -11 -85 -30 -107 -12 -15 -23 -31 -23 -35 0 -13 -28 -34 -55 -41 -20
-5 -26 -4 -21 5 10 15 0 14 -29 -5 -14 -9 -26 -14 -26 -10 -2 9 -6 25 -9 34
-1 4 -2 14 -1 23 2 22 -23 27 -94 19 -33 -4 -63 -5 -67 -3 -5 2 -9 -8 -10 -24
-3 -53 -4 -58 -12 -71 -4 -7 -2 -19 4 -27 8 -10 9 -15 2 -15 -6 0 -9 -7 -6
-15 4 -8 -3 -32 -13 -52 -32 -62 -36 -114 -13 -168 11 -26 20 -59 20 -74 0
-27 10 -64 32 -124 8 -20 16 -26 28 -22 16 5 18 1 13 -37 -7 -53 -10 -57 -22
-27 -10 24 -10 24 -10 2 -1 -13 -4 -23 -8 -23 -5 0 -7 -41 -5 -90 2 -72 -1
-92 -12 -96 -16 -6 -96 34 -96 48 0 4 -4 8 -10 8 -5 0 -36 17 -67 37 -150 96
-319 121 -452 69 l-64 -26 -74 25 c-108 37 -122 34 -191 -29 -32 -30 -72 -74
-87 -98 -16 -24 -31 -45 -32 -47 -2 -3 -76 -6 -166 -8 -187 -4 -220 -8 -237
-28 -7 -8 -33 -21 -59 -29 -25 -8 -61 -22 -79 -31 -24 -12 -47 -16 -77 -12
-23 4 -58 4 -79 0 l-36 -6 0 -833 0 -834 2300 0 2300 0 0 229 0 229 -103 51
c-57 28 -107 51 -110 51 -3 0 -23 11 -43 25 -34 23 -37 29 -39 78 -2 59 -29
118 -85 187 -20 25 -54 71 -74 103 -21 32 -65 85 -98 119 l-60 60 7 61 c6 58
5 62 -30 113 -40 58 -75 79 -150 89 -61 8 -115 24 -113 33 1 4 -4 18 -12 32
-7 14 -13 26 -12 28 6 7 1 22 -6 18 -4 -2 -14 0 -22 5 -13 8 -13 10 0 18 12 9
12 11 -2 16 -14 6 -15 10 -6 25 9 14 8 24 -5 44 -9 14 -17 32 -17 41 0 8 -4
15 -8 15 -5 0 -15 33 -22 73 -7 39 -23 97 -37 127 -36 79 -69 365 -54 466 5
39 8 110 4 157 l-6 86 73 -6 c56 -5 74 -3 81 8 11 18 12 52 0 45 -5 -3 -14 1
-21 10 -7 8 -20 12 -28 9 -8 -3 -33 0 -56 7 -25 7 -34 13 -23 15 21 5 22 22 2
29 -22 9 -18 24 5 24 17 0 20 7 20 50 0 54 1 55 31 40 14 -8 19 -7 19 2 0 9 3
9 10 -2 16 -26 21 -4 5 26 -8 16 -29 59 -45 97 -34 77 -58 92 -128 82 -51 -8
-56 1 -66 123 -4 46 -13 109 -21 140 -8 31 -15 71 -15 89 0 18 -4 41 -9 51 -5
9 -16 33 -25 52 -9 19 -22 44 -28 55 -7 11 -36 56 -64 100 -28 44 -56 96 -63
116 -14 44 -45 75 -87 86 -30 8 -91 73 -106 115 -4 9 -20 19 -37 23 -29 6 -64
46 -64 72 0 7 -6 13 -14 13 -7 0 -24 10 -38 22 -19 16 -24 29 -20 45 4 17 1
23 -11 23 -10 0 -14 5 -10 15 4 12 -3 15 -37 15 -51 0 -104 34 -123 80 -9 20
-18 28 -28 24 -10 -4 -17 2 -21 19 -7 27 -19 30 -117 29 -32 0 -58 4 -58 10 0
9 -60 38 -79 38 -5 0 -12 -7 -15 -16z m49 -74 c-3 -5 -12 -10 -18 -10 -7 0 -6
4 3 10 19 12 23 12 15 0z m135 -15 c0 -8 -3 -15 -6 -15 -3 0 -12 7 -20 15 -14
13 -13 15 5 15 12 0 21 -6 21 -15z m-764 -352 c-10 -10 -19 5 -10 18 6 11 8
11 12 0 2 -7 1 -15 -2 -18z m779 -26 c11 -8 54 -19 94 -26 41 -6 80 -15 85
-20 6 -4 34 -14 61 -21 52 -14 78 -28 71 -39 -3 -4 9 -16 25 -26 29 -20 40
-38 17 -30 -49 19 -282 5 -368 -22 -32 -9 -66 -28 -82 -45 -14 -15 -32 -28
-40 -28 -8 0 -27 -13 -43 -30 -23 -24 -37 -30 -70 -30 -22 0 -46 -5 -52 -11
-6 -6 -54 -22 -105 -34 -52 -13 -126 -38 -165 -56 l-70 -34 21 38 c57 103 85
137 113 137 22 0 27 11 26 57 0 6 8 14 19 16 16 5 19 2 15 -14 -8 -31 13 -34
39 -5 16 16 35 26 53 26 16 0 34 7 41 15 7 8 18 15 24 15 6 1 27 21 46 45 19
25 40 45 46 45 6 0 27 16 48 36 23 23 51 38 79 43 23 5 44 9 47 10 3 1 14 -5
25 -12z m230 -349 c10 -13 17 -23 15 -23 -2 0 2 -9 8 -21 15 -29 -16 -48 -55
-33 -20 7 -24 12 -14 18 10 7 10 12 0 28 -14 23 -6 53 13 53 8 0 22 -10 33
-22z m-374 -125 c6 -16 12 -41 14 -58 1 -16 9 -31 16 -33 17 -4 57 -21 81 -33
10 -5 27 -9 38 -9 11 0 20 -4 20 -10 0 -15 27 -12 33 4 4 11 17 11 64 3 105
-18 266 9 398 68 22 9 56 20 76 22 25 4 40 12 46 26 8 18 12 15 41 -32 18 -28
32 -55 32 -60 0 -5 7 -11 15 -15 8 -3 15 -12 15 -19 0 -8 7 -20 16 -28 17 -14
74 -121 74 -140 0 -13 -43 13 -87 51 -15 14 -38 26 -49 28 -27 4 -79 -42 -68
-59 4 -7 -1 -18 -12 -26 -17 -12 -17 -16 -3 -56 15 -43 15 -87 -1 -87 -32 0
-57 -92 -27 -103 7 -3 5 -6 -5 -6 -12 -1 -18 -9 -18 -26 0 -32 -12 -26 -73 31
-79 74 -82 76 -164 84 -143 16 -156 21 -165 60 -4 19 -6 51 -3 70 3 25 0 41
-13 56 -21 25 -74 54 -99 54 -20 1 -74 26 -116 54 -27 18 -31 19 -60 4 -18 -9
-50 -19 -72 -22 -51 -6 -83 -13 -95 -21 -16 -10 -11 33 8 73 10 20 24 63 31
94 13 62 37 88 78 88 16 0 27 -9 34 -27z m-293 -182 c11 -6 11 -10 0 -18 -35
-27 -77 -20 -65 11 7 17 43 21 65 7z m1042 -347 c0 -8 -4 -12 -10 -9 -5 3 -10
13 -10 21 0 8 5 12 10 9 6 -3 10 -13 10 -21z m-484 -139 c-11 -8 -28 -15 -37
-15 -10 0 -33 -8 -51 -19 -37 -21 -102 -36 -93 -21 3 5 22 12 43 16 20 4 57
18 81 31 51 27 89 32 57 8z m304 -34 c0 -20 -25 -29 -43 -16 -18 13 -18 13 0
18 30 8 43 7 43 -2z m-40 -216 c29 -18 38 -29 33 -42 -4 -11 -3 -14 5 -9 7 4
12 2 12 -3 0 -6 -8 -10 -17 -9 -34 4 -103 -14 -103 -27 0 -8 -23 -14 -71 -17
-39 -3 -74 -10 -78 -16 -6 -10 -94 -32 -142 -35 -14 -1 -33 -8 -43 -16 -9 -8
-19 -11 -22 -8 -10 9 5 57 17 57 17 0 210 96 249 124 47 34 107 34 160 1z
m-935 -1739 c-8 -32 -22 -70 -31 -84 -15 -27 -15 -27 -9 18 6 46 42 137 50
128 3 -2 -2 -30 -10 -62z m947 -4 c-14 -11 -18 -10 -20 4 -5 21 20 38 30 21 4
-7 0 -18 -10 -25z m-41 -49 c6 -18 15 -33 20 -33 5 0 9 -4 9 -10 0 -5 -11 -10
-24 -10 -21 0 -24 5 -29 57 -6 54 5 104 11 53 2 -14 8 -40 13 -57z m82 -17 c4
-10 1 -13 -9 -9 -15 6 -19 23 -5 23 5 0 11 -7 14 -14z m19 -93 c-2 -7 -11 -13
-19 -13 -11 0 -13 5 -8 18 4 9 10 28 13 42 6 25 6 25 12 -5 4 -16 4 -36 2 -42z"/>
<path d="M2858 2443 c7 -3 16 -2 19 1 4 3 -2 6 -13 5 -11 0 -14 -3 -6 -6z"/>
<path d="M1864 4246 c-14 -11 -16 -18 -8 -26 8 -8 14 -9 18 -1 4 6 16 11 27
11 10 0 19 7 19 15 0 19 -30 19 -56 1z"/>
</g>
</svg>
